<?xml version="1.0" encoding="UTF-8" standalone="no"?>
<!-- Created with Inkscape (http://www.inkscape.org/) -->

<svg
   xmlns:dc="http://purl.org/dc/elements/1.1/"
   xmlns:cc="http://creativecommons.org/ns#"
   xmlns:rdf="http://www.w3.org/1999/02/22-rdf-syntax-ns#"
   xmlns:svg="http://www.w3.org/2000/svg"
   xmlns="http://www.w3.org/2000/svg"
   xmlns:xlink="http://www.w3.org/1999/xlink"
   xmlns:sodipodi="http://sodipodi.sourceforge.net/DTD/sodipodi-0.dtd"
   xmlns:inkscape="http://www.inkscape.org/namespaces/inkscape"
   width="512"
   height="512"
   viewBox="0 0 511.99999 511.99999"
   id="svg2"
   version="1.1"
   inkscape:version="0.91 r13725"
   sodipodi:docname="chortlelogov1.svg"
   inkscape:export-filename="D:\Android Development\Chortle\chortlelogo.png"
   inkscape:export-xdpi="90"
   inkscape:export-ydpi="90">
  <defs
     id="defs4">
    <linearGradient
       inkscape:collect="always"
       id="linearGradient4320">
      <stop
         style="stop-color:#9d0000;stop-opacity:1;"
         offset="0"
         id="stop4322" />
      <stop
         style="stop-color:#9d0000;stop-opacity:0;"
         offset="1"
         id="stop4324" />
    </linearGradient>
    <radialGradient
       inkscape:collect="always"
       xlink:href="#linearGradient4320"
       id="radialGradient4354"
       cx="912.82397"
       cy="325.55933"
       fx="912.82397"
       fy="325.55933"
       r="84.20995"
       gradientTransform="matrix(-5.7493436e-6,2.5825383,-2.6056822,-1.3671532e-7,1742.7886,-2095.8236)"
       gradientUnits="userSpaceOnUse" />
  </defs>
  <sodipodi:namedview
     id="base"
     pagecolor="#ffffff"
     bordercolor="#666666"
     borderopacity="1.0"
     inkscape:pageopacity="0"
     inkscape:pageshadow="2"
     inkscape:zoom="1"
     inkscape:cx="369.2377"
     inkscape:cy="266.55294"
     inkscape:document-units="px"
     inkscape:current-layer="g4338"
     showgrid="false"
     inkscape:window-width="1920"
     inkscape:window-height="1027"
     inkscape:window-x="1272"
     inkscape:window-y="-8"
     inkscape:window-maximized="1"
     units="px" />
  <metadata
     id="metadata7">
    <rdf:RDF>
      <cc:Work
         rdf:about="">
        <dc:format>image/svg+xml</dc:format>
        <dc:type
           rdf:resource="http://purl.org/dc/dcmitype/StillImage" />
        <dc:title></dc:title>
      </cc:Work>
    </rdf:RDF>
  </metadata>
  <g
     inkscape:label="Layer 1"
     inkscape:groupmode="layer"
     id="layer1"
     transform="translate(0,-540.36219)">
    <g
       transform="matrix(2.3475349,0,0,2.3475349,-2099.8211,-72.235466)"
       id="g4338">
      <g
         id="g4340"
         transform="matrix(1.024,0,0,1.024,-21.528869,-11.435987)" />
      <g
         id="g4358"
         transform="matrix(1.1363637,0,0,1.1363637,-136.84501,-50.455133)">
        <circle
           r="95.964493"
           cy="370.00415"
           cx="1003.5297"
           id="circle4342"
           style="opacity:1;fill:#d40000;fill-opacity:1;stroke:none;stroke-width:6.19999981;stroke-miterlimit:4;stroke-dasharray:none;stroke-opacity:1"
           transform="translate(0,-1.7039151e-6)" />
        <path
           style="opacity:1;fill:url(#radialGradient4354);fill-opacity:1;stroke:none;stroke-width:6.19999981;stroke-miterlimit:4;stroke-dasharray:none;stroke-opacity:1"
           d="m 1021.9844,330.68164 -3.5469,10.67969 -22.25,17.5 -6.18945,2.31055 3.18945,3.18945 -4.54688,4.79883 -19.43554,-19.43555 -6.11328,7.23437 -7.47071,-7.59765 -6.43359,-1.25 -10.25,4 -8.75,38.75 59.25,59.25 15.7969,15.79687 a 95.964493,95.964493 0 0 0 4.9961,-0.17578 c 0.049,-0.003 0.099,-0.008 0.1484,-0.0117 a 95.964493,95.964493 0 0 0 88.2285,-83.43554 l -1.0469,-1.04688 -18.7304,-18.55664 -5.627,0.91602 -13.8183,-13.82032 -9.1465,8.53321 -28.2539,-27.62891 z"
           id="path4344"
           inkscape:connector-curvature="0"
           transform="translate(0,-1.7039151e-6)" />
        <path
           d="m 1019.5167,329.75586 c -1.4044,0.0906 -3.4416,0.31575 -3.8946,5.52539 -0.453,5.20964 -2.6289,7.24805 -2.6289,7.24805 -2.265,0.0906 -14.45115,12.68554 -14.45115,12.68554 0,0 -4.43967,1.85597 -5.3457,2.26368 -0.90603,0.40771 -0.36133,1.49609 -0.36133,1.49609 l -3.35351,2.03906 c 0.77012,0.72482 2.08561,0.58789 2.35742,0.58789 0.27181,0 5.20898,-2.44531 5.20898,-2.44531 0,0 7.56559,-0.3628 9.06059,0.0449 1.4949,0.40771 5.2543,0.45313 5.4355,0.45313 0.1812,0 0,0.90625 0,0.90625 0,0 1.7788,-0.5917 1.7832,1.34179 l -1.3555,0 -1.8672,8.80469 c -0.2533,0.0723 -0.5046,0.14973 -0.7617,0.21094 -0.8122,0.20306 -1.5635,0.30469 -2.2539,0.30469 -0.2843,0 -0.5074,-0.0199 -0.6699,-0.0606 -0.081,-6.37615 -2.6797,-9.56445 -7.79687,-9.56445 -2.11185,0 -3.98097,0.36467 -5.60547,1.0957 -1.6245,0.73102 -3.06523,1.70545 -4.32422,2.92383 -1.21837,1.21837 -2.25456,2.5993 -3.10742,4.14258 -0.85286,1.50266 -1.56424,3.0669 -2.13281,4.6914 -0.52797,1.58389 -0.91258,3.12625 -1.15625,4.62891 -0.24367,1.50266 -0.36719,2.84372 -0.36719,4.02148 0,0.9084 0.0693,1.74227 0.20117,2.50782 -0.31615,0.32687 -0.66797,0.61868 -1.08593,0.84374 -0.48735,0.24368 -1.05724,0.36524 -1.70703,0.36524 -0.93409,0 -1.58371,-0.22318 -1.94922,-0.66992 -0.3249,-0.48735 -0.48633,-1.11704 -0.48633,-1.88867 0,-0.85287 0.14149,-1.90899 0.42578,-3.16797 0.3249,-1.2996 0.66964,-2.66059 1.03516,-4.08203 0.36551,-1.46205 0.69032,-2.92468 0.97461,-4.38672 0.32489,-1.50266 0.48828,-2.86171 0.48828,-4.08008 0,-2.43675 -0.64962,-4.18432 -1.94922,-5.24024 -1.25899,-1.09654 -2.8631,-1.64453 -4.8125,-1.64453 -0.93408,0 -2.03203,0.20325 -3.29102,0.60938 -1.25898,0.40612 -2.53829,1.34068 -3.83789,2.80273 l 3.29102,-15.35156 -9.01758,1.21875 -7.04102,33.02344 c -0.90312,0.80929 -1.89491,1.51959 -2.98047,2.125 -2.11184,1.13714 -4.32376,1.70703 -6.63867,1.70703 -1.46204,0 -2.68155,-0.24507 -3.65625,-0.73242 -0.93408,-0.48735 -1.6654,-1.17684 -2.19336,-2.07032 -0.52796,-0.89347 -0.89264,-1.94959 -1.0957,-3.16796 -0.20306,-1.21838 -0.30469,-2.55944 -0.30469,-4.02149 0,-2.03063 0.1415,-4.14092 0.42578,-6.33398 0.3249,-2.19308 0.77127,-4.32525 1.33985,-6.39649 0.56857,-2.11184 1.24008,-4.10253 2.01172,-5.9707 0.81224,-1.90879 1.68505,-3.55277 2.61914,-4.93359 0.9747,-1.42144 2.01089,-2.53932 3.10742,-3.35157 1.09653,-0.85286 2.2324,-1.27929 3.41016,-1.27929 1.17776,0 2.05252,0.38657 2.62109,1.1582 0.56857,0.73103 0.85156,1.60383 0.85156,2.61914 0,1.09654 -0.28299,2.21246 -0.85156,3.34961 -0.56857,1.09653 -1.22015,1.82785 -1.95117,2.19336 0.56857,0.69041 1.15839,1.13678 1.76758,1.33984 0.64979,0.16246 1.21773,0.24414 1.70507,0.24414 1.54328,0 2.64122,-0.52805 3.29102,-1.58398 0.6498,-1.05592 0.97461,-2.35517 0.97461,-3.89844 0,-1.50266 -0.26501,-2.78196 -0.79297,-3.83789 -0.52797,-1.05592 -1.23934,-1.90879 -2.13281,-2.55859 -0.89348,-0.6498 -1.94765,-1.11611 -3.16602,-1.40039 -1.21837,-0.3249 -2.49768,-0.48828 -3.83789,-0.48828 -2.72103,0 -5.15809,0.52805 -7.31055,1.58398 -2.11184,1.05592 -3.96103,2.45679 -5.54492,4.20312 -1.58388,1.74634 -2.923,3.73703 -4.01953,5.97071 -1.09654,2.23368 -1.99123,4.52729 -2.68164,6.88281 -0.69041,2.31491 -1.19658,4.63041 -1.52148,6.94531 -0.28429,2.2743 -0.42774,4.32479 -0.42774,6.15235 0,5.19839 1.09794,8.99644 3.29102,11.39257 2.19307,2.35553 5.27975,3.53321 9.25976,3.53321 1.86818,0 3.71541,-0.24312 5.54297,-0.73047 1.82756,-0.48735 3.5333,-1.21866 5.11719,-2.19336 1.00893,-0.62088 1.95408,-1.33347 2.84765,-2.11914 l -0.86718,4.06836 8.77148,0 4.14258,-19.55469 c 0.44673,-1.54327 1.07642,-2.86244 1.88867,-3.95898 0.81225,-1.09654 1.76675,-1.64649 2.86328,-1.64649 1.46205,0 2.19336,1.03619 2.19336,3.10742 0,0.9747 -0.14149,2.15239 -0.42578,3.53321 -0.28429,1.34021 -0.61105,2.72114 -0.97656,4.14258 -0.3249,1.42144 -0.62782,2.84223 -0.91211,4.26367 -0.28429,1.38082 -0.42774,2.58039 -0.42774,3.5957 0,0.85286 0.12156,1.70573 0.36524,2.55859 0.24367,0.81226 0.65018,1.54161 1.21875,2.19141 0.56857,0.64979 1.29989,1.17786 2.19336,1.58398 0.93409,0.36552 2.07189,0.54883 3.41211,0.54883 0.81224,0 1.68505,-0.12156 2.61914,-0.36523 0.9747,-0.24368 1.96907,-0.7518 2.98437,-1.52344 0.67858,-0.51572 1.34738,-1.19932 2.00782,-2.02344 0.39026,0.65678 0.84391,1.23648 1.37695,1.71875 0.85286,0.77164 1.86911,1.34152 3.04687,1.70703 1.21838,0.3249 2.53755,0.48633 3.95899,0.48633 1.86817,0 3.63371,-0.42643 5.29883,-1.27929 1.66511,-0.85286 3.14765,-2.07041 4.44725,-3.6543 1.2996,-1.6245 2.3757,-3.57532 3.2285,-5.84961 0.8529,-2.2743 1.4028,-4.83291 1.6465,-7.67578 1.1122,-0.18537 2.1823,-0.43342 3.2109,-0.74414 l -3.9941,18.83789 8.7715,0 4.873,-23.14844 c 0.8123,-0.73103 1.5635,-1.32084 2.2539,-1.76758 0.6905,-0.44673 1.4218,-0.66992 2.1934,-0.66992 0.4467,0 0.7117,0.20325 0.793,0.60938 0.1218,0.40612 0.2434,0.85249 0.3652,1.33984 0.1218,0.44673 0.3251,0.87317 0.6094,1.2793 0.3249,0.40612 0.9127,0.60937 1.7656,0.60937 0.731,0 1.3607,-0.12156 1.8887,-0.36523 0.5685,-0.28429 1.0368,-0.62904 1.4023,-1.03516 0.3655,-0.44674 0.6286,-0.93493 0.791,-1.46289 0.2031,-0.52796 0.3047,-1.05602 0.3047,-1.58398 0,-0.64734 -0.1209,-1.2544 -0.3418,-1.82813 l 1.6582,0 -3.6562,17.11914 c -0.3249,1.54327 -0.4863,2.86245 -0.4863,3.95899 0,2.55858 0.6296,4.4277 1.8886,5.60546 1.259,1.13715 2.8014,1.70508 4.6289,1.70508 0.8123,0 1.7668,-0.12156 2.8633,-0.36523 1.1372,-0.24368 2.2949,-0.7518 3.4727,-1.52344 0.7849,-0.54135 1.5592,-1.24031 2.3261,-2.07031 0.3147,0.91927 0.7822,1.67187 1.4043,2.2539 1.259,1.13715 2.8014,1.70508 4.6289,1.70508 0.8123,0 1.7668,-0.12156 2.8633,-0.36523 1.1372,-0.24368 2.2949,-0.7518 3.4727,-1.52344 0.8639,-0.59579 1.7165,-1.36904 2.5586,-2.31445 0.3885,0.76751 0.8779,1.42183 1.4765,1.94922 1.7464,1.50266 4.04,2.2539 6.8828,2.2539 1.2184,0 2.3961,-0.14149 3.5333,-0.42578 1.1371,-0.28429 2.1733,-0.77248 3.1074,-1.46289 0.9341,-0.69041 1.7252,-1.60309 2.375,-2.74023 0.6904,-1.17776 1.1985,-2.64039 1.5234,-4.38672 -0.9747,0.85286 -2.1324,1.6041 -3.4726,2.2539 -1.2996,0.6498 -2.5371,0.97461 -3.7149,0.97461 -0.7716,0 -1.4013,-0.14149 -1.8887,-0.42578 -0.4873,-0.28428 -0.8739,-0.67085 -1.1582,-1.1582 -0.2843,-0.48735 -0.4875,-1.01541 -0.6093,-1.58399 -0.081,-0.60918 -0.1211,-1.21893 -0.1211,-1.82812 l 0,-0.91211 c 0.041,-0.3249 0.081,-0.64971 0.1211,-0.97461 1.8275,-0.12184 3.5751,-0.5084 5.2402,-1.1582 1.7057,-0.69041 3.2082,-1.58315 4.5078,-2.67969 1.2996,-1.13715 2.3338,-2.43834 3.1055,-3.90039 0.7716,-1.50266 1.1582,-3.12671 1.1582,-4.87305 0,-0.77163 -0.1016,-1.50294 -0.3047,-2.19336 -0.1625,-0.6904 -0.5072,-1.2982 -1.0352,-1.82617 -0.4873,-0.56857 -1.1788,-1.0169 -2.0722,-1.3418 -0.8529,-0.3249 -1.9489,-0.48632 -3.2891,-0.48632 -2.0712,0 -3.9185,0.36467 -5.543,1.0957 -1.6245,0.73102 -3.0472,1.70545 -4.2656,2.92383 -1.2184,1.21837 -2.2526,2.5993 -3.1055,4.14258 -0.8528,1.50266 -1.5443,3.04697 -2.0722,4.63085 -0.4874,1.58389 -0.8521,3.12625 -1.0957,4.62891 -0.2437,1.50266 -0.3653,2.84373 -0.3653,4.02149 0,0.83175 0.051,1.60368 0.1504,2.32226 -0.9935,0.96441 -2.063,1.45508 -3.2109,1.45508 -0.8529,0 -1.4826,-0.16338 -1.8887,-0.48828 -0.4061,-0.3249 -0.6094,-0.91277 -0.6094,-1.76563 0,-0.60918 0.082,-1.2588 0.2442,-1.94922 l 7.0058,-32.89648 -9.0156,1.21875 -6.5195,30.51953 c -0.2977,1.41409 -0.4516,2.63091 -0.4766,3.66992 -0.051,0.0539 -0.094,0.11544 -0.1465,0.16797 -1.0153,1.01532 -2.1113,1.52344 -3.289,1.52344 -0.8529,0 -1.4826,-0.16338 -1.8887,-0.48828 -0.4061,-0.3249 -0.6094,-0.91277 -0.6094,-1.76563 0,-0.60918 0.082,-1.2588 0.2442,-1.94922 l 3.8984,-18.27734 3.6563,0 0.4863,-2.43555 -3.6543,0 2.0703,-9.625 -9.0156,1.21875 -1.8281,8.40625 -2.0098,0 -0.377,1.89258 c -0.1453,-0.27385 -0.3116,-0.54127 -0.5117,-0.79687 -0.6904,-0.93409 -1.7266,-1.40039 -3.1074,-1.40039 -1.2184,0 -2.4777,0.40649 -3.7773,1.21875 -1.259,0.81224 -2.4766,1.78668 -3.6543,2.92382 l 0.8515,-3.83789 -3.9492,0 -1.8437,-0.0293 -0.4161,-1.85743 c 1.2685,-0.2718 2.3555,-3.71484 2.3555,-3.71484 7.067,-4.84723 6.8851,-7.11142 6.8398,-10.59961 -0.045,-3.4882 -2.9438,-10.69082 -1.9472,-11.46094 0.9966,-0.77012 2.5371,0.49805 2.5371,0.49805 0,0 1.0415,-1.85731 -1.8125,-3.03516 -0.091,-1.04192 -1.5859,-2.03786 -2.9902,-1.94726 z m 55.1445,35.07031 c 0.5686,0 0.9532,0.22318 1.1562,0.66992 0.2437,0.44674 0.3653,1.05649 0.3653,1.82813 0,1.25899 -0.2431,2.47654 -0.7305,3.6543 -0.4873,1.13714 -1.137,2.1534 -1.9492,3.04687 -0.8123,0.89347 -1.7668,1.62479 -2.8633,2.19336 -1.0559,0.56859 -2.1738,0.87151 -3.3516,0.91211 0.3249,-1.42143 0.7514,-2.86217 1.2793,-4.32422 0.528,-1.46205 1.1178,-2.78122 1.7676,-3.95898 0.6498,-1.17776 1.3393,-2.13227 2.0703,-2.86328 0.731,-0.77164 1.4842,-1.15821 2.2559,-1.15821 z m -75.55274,0.42578 c 0.77164,0 1.31964,0.26501 1.64454,0.79297 0.3655,0.48735 0.5887,1.36016 0.6699,2.61914 -0.5686,0.20306 -1.0349,0.58963 -1.4004,1.15821 -0.32488,0.52796 -0.48826,1.21744 -0.48826,2.07031 0,0.60918 0.10162,1.15718 0.30469,1.64453 0.24367,0.44674 0.69197,0.75162 1.34177,0.91406 -0.2437,1.78695 -0.6103,3.45282 -1.0976,4.9961 -0.48738,1.54327 -1.05531,2.88238 -1.70511,4.01953 -0.60919,1.09654 -1.30062,1.96934 -2.07227,2.61914 -0.73102,0.60918 -1.46037,0.91406 -2.1914,0.91406 -0.56857,0 -1.05677,-0.0598 -1.46289,-0.18164 -0.40613,-0.16245 -0.73094,-0.42746 -0.97461,-0.79297 -0.24368,-0.36551 -0.427,-0.85175 -0.54883,-1.46094 -0.0812,-0.6498 -0.12109,-1.48273 -0.12109,-2.49804 0,-1.50266 0.22318,-3.20841 0.66992,-5.11719 0.44673,-1.9494 1.0346,-3.7767 1.76562,-5.48242 0.73102,-1.74634 1.5839,-3.20896 2.5586,-4.38672 0.9747,-1.21838 2.01089,-1.82813 3.10742,-1.82813 z"
           id="path4346"
           style="font-style:italic;font-variant:normal;font-weight:bold;font-stretch:normal;font-size:medium;line-height:125%;font-family:'Lobster Two';-inkscape-font-specification:'Lobster Two Bold Italic';letter-spacing:-1.60531378px;word-spacing:0px;fill:#ffffff;fill-opacity:1;stroke:none;stroke-width:1px;stroke-linecap:butt;stroke-linejoin:miter;stroke-opacity:1"
           inkscape:connector-curvature="0" />
      </g>
    </g>
  </g>
</svg>
